<?xml version="1.0" encoding="UTF-8"?>
<svg id="Livello_1" data-name="Livello 1" xmlns="http://www.w3.org/2000/svg" viewBox="0 0 512 512">
  <defs>
    <style>
      .cls-1 {
        fill: #1c1c1c;
      }

      .cls-2 {
        fill: #fff;
      }
    </style>
  </defs>
  <circle class="cls-1" cx="256" cy="256" r="256"/>
  <path class="cls-2" d="M55.12,344.43c0-15.73,8.26-28.31,18.48-28.31,4.72,0,7.08,2.75,7.08,5.9,0,12.19-20.05,11.01-20.05,25.17,0,22.41,14.16,37.75,44.44,37.75,65.67,0,117.97-80.61,160.05-148.25,38.54-61.74,62.13-92.41,102.24-121.12l2.36,3.54c-25.95,19.27-40.5,44.44-83.37,119.15-42.86,75.11-108.53,151-181.28,151-32.25,0-49.94-17.7-49.94-44.83ZM318.99,364.48c0-10.22,4.33-22.02,17.3-42.47,10.22-16.52,18.48-29.49,18.48-47.19,0-25.17-21.63-38.14-54.27-38.54v-5.11c64.88,3.54,101.06-28.31,101.06-73.14,0-38.93-25.95-67.24-96.74-67.24-104.21,0-189.15,65.67-189.15,127.8,0,22.02,11.4,38.14,38.14,38.14,61.34,0,98.31-58.99,104.21-105.78h4.33c-6.68,49.94-44.04,110.11-110.11,110.11-27.92,0-49.15-12.19-49.15-43.26,0-62.92,94.77-131.34,201.73-131.34,73.93,0,116.4,28.31,116.4,73.14s-48.37,73.14-101.85,75.11v.39c29.1,3.93,51.12,23.59,51.12,50.73,0,14.16-7.86,28.31-14.94,40.11-8.65,14.16-19.66,29.49-19.66,44.44,0,9.44,5.51,14.16,12.98,14.16,15.34,0,28.71-13.37,38.54-25.17,9.04-9.83,26.74-31.85,34.6-41.29h4.72c-9.04,11.01-27.13,33.42-35.78,43.65-9.83,11.8-25.56,27.53-44.44,27.53-13.37,0-27.53-7.86-27.53-24.77Z"/>
</svg>